<!DOCTYPE svg PUBLIC "-//W3C//DTD SVG 20010904//EN" "http://www.w3.org/TR/2001/REC-SVG-20010904/DTD/svg10.dtd">
<svg version="1.0" xmlns="http://www.w3.org/2000/svg" width="308px" height="224px" viewBox="0 0 3080 2240" preserveAspectRatio="xMidYMid meet">
<g id="layer101" fill="#000000" stroke="none">
 <path d="M0 1260 l0 -980 70 0 70 0 0 -70 0 -70 70 0 70 0 0 -70 0 -70 560 0 560 0 0 280 0 280 -70 0 -70 0 0 70 0 70 -70 0 -70 0 0 70 0 70 -70 0 -70 0 0 -280 0 -280 -280 0 -280 0 0 840 0 840 280 0 280 0 0 -280 0 -280 70 0 70 0 0 70 0 70 70 0 70 0 0 70 0 70 70 0 70 0 0 140 0 140 -70 0 -70 0 0 70 0 70 -70 0 -70 0 0 70 0 70 -560 0 -560 0 0 -980z"/>
 <path d="M1960 2170 l0 -70 70 0 70 0 0 -700 0 -700 -70 0 -70 0 0 -70 0 -70 -140 0 -140 0 0 -70 0 -70 -70 0 -70 0 0 -70 0 -70 280 0 280 0 0 -140 0 -140 210 0 210 0 0 140 0 140 210 0 210 0 0 70 0 70 70 0 70 0 0 280 0 280 -70 0 -70 0 0 -70 0 -70 -70 0 -70 0 0 -70 0 -70 -140 0 -140 0 0 630 0 630 140 0 140 0 0 70 0 70 -70 0 -70 0 0 70 0 70 -350 0 -350 0 0 -70z"/>
 </g>
</svg>
